<svg width="1440" height="1024" viewBox="0 0 1440 1024" fill="none" xmlns="http://www.w3.org/2000/svg">
<rect width="1440" height="1024" fill="white"/>
<rect x="158.5" y="307.5" width="1124" height="409" rx="31.5" fill="#B7FF9E" stroke="#79FF97" stroke-width="7"/>
<path d="M276.948 453H236.583V392.277L246.762 382.332H235.179V372.153H276.948V382.332H248.166V411.114L256.707 402.456H276.948V412.518H248.166V442.821H276.948V453ZM333.244 412.518L321.661 424.101V402.456H304.462V453H292.879V392.277H304.462V401.052L312.886 392.277H323.182L333.244 402.456V412.518ZM387.402 412.518L375.819 424.101V402.456H358.62V453H347.037V392.277H358.62V401.052L367.044 392.277H377.34L387.402 402.456V412.518ZM441.795 442.821L431.733 453H410.088L400.026 442.821V402.456L410.088 392.277H431.733L441.795 402.456V442.821ZM430.329 442.821V402.456H411.609V442.821H430.329ZM501.317 412.518L489.734 424.101V402.456H472.535V453H460.952V392.277H472.535V401.052L480.959 392.277H491.255L501.317 402.456V412.518ZM529.502 453H516.515V440.013H529.502V453ZM565.607 453H552.62V440.013H565.607V453ZM601.713 453H588.726V440.013H601.713V453Z" fill="black"/>
<path d="M252.336 508.532H241.951V549H235.318V508.532H225V502.703H252.336V508.532ZM281.294 525.818L274.661 532.451V520.056H264.812V549H258.179V514.227H264.812V519.252L269.636 514.227H275.532L281.294 520.056V525.818ZM312.709 560.591L306.947 566.353H287.919L293.681 560.591H306.143V544.042L301.252 549H294.552L288.723 543.171V514.227H295.356V543.171H306.143V514.227H312.709V560.591ZM358.22 549H351.587V544.042L346.629 549H339.996L334.234 543.171V531.647L339.996 525.818H350.917L345.423 531.58H340.8V543.171H351.587V520.056H333.363L338.321 514.227H352.458L358.22 520.056V549ZM390.447 502.703H376.377V518.381L380.531 514.227H387.834L382.072 520.056H376.377V549H369.744V502.703L375.573 496.874H384.551L390.447 502.703ZM407.886 514.227L402.057 520.056H397.903V543.171H406.144V549H397.099L391.27 543.171V520.056H383.029L388.858 514.227H391.27V509.336L397.903 502.703V514.227H407.886ZM436.103 549H417.946L412.184 543.171V520.056L417.946 514.227H430.341L436.103 520.056V531.647L430.341 537.409H419.621L425.517 531.647H429.537V520.056H418.817V543.171H436.103V549ZM468.619 525.818L461.986 532.451V520.056H452.137V549H445.504V514.227H452.137V519.252L456.961 514.227H462.857L468.619 520.056V525.818ZM510.41 543.171L504.581 549H492.99L487.228 543.171V537.409H493.861V543.171H503.777V525.818H487.228V502.703H510.41V508.532H492.99V520.056H504.581L510.41 525.818V543.171ZM556.239 560.591L550.477 566.353H531.449L537.211 560.591H549.673V544.042L544.782 549H538.082L532.253 543.171V514.227H538.886V543.171H549.673V514.227H556.239V560.591ZM590.972 525.818L584.339 532.451V520.056H574.49V549H567.857V514.227H574.49V519.252L579.314 514.227H585.21L590.972 520.056V525.818ZM618.502 520.056H601.953V525.818H611.065L616.894 531.647V543.171L611.065 549H595.32V543.171H610.261V531.647H601.149L595.32 525.818V520.056L601.149 514.227H612.606L618.502 520.056ZM633.349 549H625.912V541.563H633.349V549ZM654.025 549H646.588V541.563H654.025V549ZM674.701 549H667.264V541.563H674.701V549Z" fill="black"/>
</svg>

