<svg width="644" height="1080" viewBox="0 0 644 1080" fill="none" xmlns="http://www.w3.org/2000/svg">
<g clip-path="url(#clip0_8_12)">
<rect width="644" height="1080" fill="white"/>
<rect y="-22" width="644" height="1102" fill="#D9D9D9"/>
<rect x="35" y="720" width="809" height="942" fill="white"/>
<path d="M271 385H360V816H271V385Z" fill="white"/>
<rect x="301" y="538" width="431" height="230" fill="white"/>
<rect width="115" height="196" transform="matrix(-1 0 0 1 655 682)" fill="#868686"/>
<rect width="115" height="196" transform="matrix(-1 0 0 1 444 682)" fill="#868686"/>
<ellipse cx="329.208" cy="307.701" rx="83.5" ry="64" transform="rotate(-18.0288 329.208 307.701)" fill="#868686"/>
<ellipse cx="413.5" cy="247" rx="126.5" ry="84" fill="#868686"/>
<ellipse cx="496" cy="162.5" rx="148" ry="121.5" fill="#868686"/>
<path d="M96.308 331H84.842V300.697H57.347V331H45.764V260.332L55.943 250.153H96.308V331ZM92.096 260.332H57.347V299.293L66.122 290.518H84.842V267.586L92.096 260.332ZM130.243 296.017L159.142 267.469V279.871L148.963 289.933L159.142 300.229V331H147.676V297.772H130.243V331H118.66V248.749L130.243 237.166V296.017ZM205.377 270.277L195.198 280.456H187.944V320.821H202.335V331H186.54L176.361 320.821V280.456H161.97L172.149 270.277H176.361V261.736L187.944 250.153V270.277H205.377Z" fill="black"/>
</g>
<defs>
<clipPath id="clip0_8_12">
<rect width="644" height="1080" fill="white"/>
</clipPath>
</defs>
</svg>
