<svg width="480" height="800" viewBox="0 0 480 800" fill="none" xmlns="http://www.w3.org/2000/svg">
<rect x="-321.5" y="-16.5" width="1124" height="1032" rx="31.5" fill="#B7FF9E" stroke="#79FF97" stroke-width="7"/>
<path d="M51.948 272H11.583V211.277L21.762 201.332H10.179V191.153H51.948V201.332H23.166V230.114L31.707 221.456H51.948V231.518H23.166V261.821H51.948V272ZM108.244 231.518L96.6612 243.101V221.456H79.4622V272H67.8792V211.277H79.4622V220.052L87.8862 211.277H98.1822L108.244 221.456V231.518ZM162.402 231.518L150.819 243.101V221.456H133.62V272H122.037V211.277H133.62V220.052L142.044 211.277H152.34L162.402 221.456V231.518ZM216.795 261.821L206.733 272H185.088L175.026 261.821V221.456L185.088 211.277H206.733L216.795 221.456V261.821ZM205.329 261.821V221.456H186.609V261.821H205.329ZM276.317 231.518L264.734 243.101V221.456H247.535V272H235.952V211.277H247.535V220.052L255.959 211.277H266.255L276.317 221.456V231.518ZM304.502 272H291.515V259.013H304.502V272ZM340.607 272H327.62V259.013H340.607V272ZM376.713 272H363.726V259.013H376.713V272Z" fill="black"/>
<path d="M39.336 327.532H28.951V368H22.318V327.532H12V321.703H39.336V327.532ZM68.2936 344.818L61.6606 351.451V339.056H51.8116V368H45.1786V333.227H51.8116V338.252L56.6356 333.227H62.5316L68.2936 339.056V344.818ZM99.7093 379.591L93.9473 385.353H74.9193L80.6813 379.591H93.1433V363.042L88.2523 368H81.5523L75.7233 362.171V333.227H82.3563V362.171H93.1433V333.227H99.7093V379.591ZM145.22 368H138.587V363.042L133.629 368H126.996L121.234 362.171V350.647L126.996 344.818H137.917L132.423 350.58H127.8V362.171H138.587V339.056H120.363L125.321 333.227H139.458L145.22 339.056V368ZM177.447 321.703H163.377V337.381L167.531 333.227H174.834L169.072 339.056H163.377V368H156.744V321.703L162.573 315.874H171.551L177.447 321.703ZM194.886 333.227L189.057 339.056H184.903V362.171H193.144V368H184.099L178.27 362.171V339.056H170.029L175.858 333.227H178.27V328.336L184.903 321.703V333.227H194.886ZM223.103 368H204.946L199.184 362.171V339.056L204.946 333.227H217.341L223.103 339.056V350.647L217.341 356.409H206.621L212.517 350.647H216.537V339.056H205.817V362.171H223.103V368ZM255.619 344.818L248.986 351.451V339.056H239.137V368H232.504V333.227H239.137V338.252L243.961 333.227H249.857L255.619 339.056V344.818ZM297.41 362.171L291.581 368H279.99L274.228 362.171V356.409H280.861V362.171H290.777V344.818H274.228V321.703H297.41V327.532H279.99V339.056H291.581L297.41 344.818V362.171ZM343.239 379.591L337.477 385.353H318.449L324.211 379.591H336.673V363.042L331.782 368H325.082L319.253 362.171V333.227H325.886V362.171H336.673V333.227H343.239V379.591ZM377.972 344.818L371.339 351.451V339.056H361.49V368H354.857V333.227H361.49V338.252L366.314 333.227H372.21L377.972 339.056V344.818ZM405.502 339.056H388.953V344.818H398.065L403.894 350.647V362.171L398.065 368H382.32V362.171H397.261V350.647H388.149L382.32 344.818V339.056L388.149 333.227H399.606L405.502 339.056ZM420.349 368H412.912V360.563H420.349V368ZM441.025 368H433.588V360.563H441.025V368ZM461.701 368H454.264V360.563H461.701V368Z" fill="black"/>
</svg>
