<svg width="128" height="128" viewBox="0 0 128 128" fill="none" xmlns="http://www.w3.org/2000/svg">
<g clip-path="url(#clip0_3_2)">
<rect width="128" height="128" rx="38" fill="#4B4B4B"/>
<line x1="31.8906" y1="45.239" x2="-16.43" y2="106.469" stroke="#F87B35" stroke-width="4"/>
<line x1="30.0077" y1="45.5104" x2="53.0077" y2="76.5104" stroke="#F87B35" stroke-width="5"/>
<line x1="32.4715" y1="98.5798" x2="77.2069" y2="48.6323" stroke="#F87B35" stroke-width="5"/>
<line x1="75.9446" y1="46.4289" x2="96.163" y2="71.454" stroke="#F87B35" stroke-width="5"/>
<line x1="128.378" y1="48.0147" x2="78.6767" y2="93.0231" stroke="#F87B35" stroke-width="5"/>
<path d="M55.768 119H52.632V110.712H45.112V119H41.944V99.672L44.728 96.888H55.768V119ZM54.616 99.672H45.112V110.328L47.512 107.928H52.632V101.656L54.616 99.672ZM75.9295 119H72.7615V107.928H65.2735V119H62.1055V96.888H65.2735V107.416L72.3775 100.472V96.888H75.5455L75.5135 100.792L71.1295 105.048V105.464H73.1455L75.9295 108.216V119ZM91.7748 99.672H86.8148V119H83.6468V99.672H78.7188V96.888H91.7748V99.672Z" fill="#F87B35"/>
</g>
<defs>
<clipPath id="clip0_3_2">
<rect width="128" height="128" rx="38" fill="white"/>
</clipPath>
</defs>
</svg>
